<svg xmlns="http://www.w3.org/2000/svg" width="600" height="600" viewBox="0 0 600 600" fill="none" stroke="rgba(255, 255, 255, 0.075)" stroke-width="1.4" stroke-linecap="round" stroke-linejoin="round">
  <!-- ROW 1 -->
  <!-- Chat bubble with dots -->
  <g transform="translate(30, 20)">
    <path d="M4 14a8 8 0 0 1 8-8h18a8 8 0 0 1 8 8v7a8 8 0 0 1-8 8h-7l-9 7v-7h-2a8 8 0 0 1-8-8z"/>
    <circle cx="15" cy="14" r="1.5" fill="rgba(255,255,255,0.075)"/>
    <circle cx="21" cy="14" r="1.5" fill="rgba(255,255,255,0.075)"/>
    <circle cx="27" cy="14" r="1.5" fill="rgba(255,255,255,0.075)"/>
  </g>

  <!-- Tic-Tac-Toe Grid (as seen in screenshot!) -->
  <g transform="translate(130, 25)">
    <line x1="8" y1="1" x2="8" y2="25"/>
    <line x1="18" y1="1" x2="18" y2="25"/>
    <line x1="1" y1="8" x2="25" y2="8"/>
    <line x1="1" y1="18" x2="25" y2="18"/>
    <!-- X -->
    <line x1="2" y1="2" x2="6" y2="6"/>
    <line x1="6" y1="2" x2="2" y2="6"/>
    <!-- O -->
    <circle cx="13" cy="13" r="2.5"/>
    <!-- X -->
    <line x1="20" y1="20" x2="24" y2="24"/>
    <line x1="24" y1="20" x2="20" y2="24"/>
  </g>

  <!-- Coffee Mug with steam -->
  <g transform="translate(230, 20)">
    <path d="M4 8h22v14a6 6 0 0 1-6 6h-10a6 6 0 0 1-6-6V8z"/>
    <path d="M26 11h4a3 3 0 0 1 3 3v2a3 3 0 0 1-3 3h-4"/>
    <path d="M2 30h28"/>
    <path d="M9 2c0 2-1 3-1 4"/>
    <path d="M15 2c0 2-1 3-1 4"/>
  </g>

  <!-- Cat face with whiskers (seen in screenshot!) -->
  <g transform="translate(330, 22)">
    <path d="M4 14v10a8 8 0 0 0 16 0V14l-4 3-4-9-4 9z"/>
    <circle cx="9" cy="18" r="1.2" fill="rgba(255,255,255,0.075)"/>
    <circle cx="15" cy="18" r="1.2" fill="rgba(255,255,255,0.075)"/>
    <line x1="2" y1="19" x2="6" y2="20"/>
    <line x1="2" y1="22" x2="6" y2="22"/>
    <line x1="18" y1="20" x2="22" y2="19"/>
    <line x1="18" y1="22" x2="22" y2="22"/>
  </g>

  <!-- Headphones -->
  <g transform="translate(425, 20)">
    <path d="M6 18v-5a11 11 0 0 1 22 0v5"/>
    <rect x="3" y="18" width="6" height="10" rx="3"/>
    <rect x="25" y="18" width="6" height="10" rx="3"/>
  </g>

  <!-- Gamepad / Controller -->
  <g transform="translate(520, 22)">
    <rect x="2" y="6" width="26" height="15" rx="6"/>
    <line x1="8" y1="13" x2="12" y2="13"/>
    <line x1="10" y1="11" x2="10" y2="15"/>
    <circle cx="19" cy="12" r="1.2" fill="rgba(255,255,255,0.075)"/>
    <circle cx="22" cy="14" r="1.2" fill="rgba(255,255,255,0.075)"/>
  </g>

  <!-- ROW 2 -->
  <!-- Sunglasses (seen in screenshot) -->
  <g transform="translate(30, 105)">
    <path d="M4 10h22"/>
    <path d="M4 10c0 5 3 9 7 9s7-4 7-9H4z"/>
    <path d="M18 10c0 5 3 9 7 9s7-4 7-9h-14z"/>
    <line x1="1" y1="9" x2="4" y2="10"/>
    <line x1="29" y1="9" x2="26" y2="10"/>
  </g>

  <!-- Rocket / Spaceship -->
  <g transform="translate(130, 95)">
    <path d="M12 2c5 4 8 11 8 18l-4 2-4-4-4 4-4-2c0-7 3-14 8-18z"/>
    <circle cx="12" cy="10" r="2.5"/>
    <path d="M10 24l2 5 2-5"/>
  </g>

  <!-- Camera -->
  <g transform="translate(230, 100)">
    <path d="M4 9h4l2-3h8l2 3h4a3 3 0 0 1 3 3v12a3 3 0 0 1-3 3H4a3 3 0 0 1-3-3V12a3 3 0 0 1 3-3z"/>
    <circle cx="14" cy="17" r="5"/>
  </g>

  <!-- Star with sparkles -->
  <g transform="translate(330, 105)">
    <polygon points="12,2 15,9 23,10 17,15 19,22 12,18 5,22 7,15 1,10 9,9"/>
  </g>

  <!-- Clock / Stopwatch -->
  <g transform="translate(425, 100)">
    <circle cx="14" cy="15" r="11"/>
    <polyline points="14,8 14,15 18,18"/>
    <line x1="14" y1="1" x2="14" y2="4"/>
    <line x1="11" y1="1" x2="17" y2="1"/>
  </g>

  <!-- Paper Plane -->
  <g transform="translate(525, 100)">
    <polygon points="2,12 26,2 17,26 13,16"/>
    <line x1="13" y1="16" x2="26" y2="2"/>
  </g>

  <!-- ROW 3 -->
  <!-- Heart with pulse -->
  <g transform="translate(25, 185)">
    <path d="M12 21.35l-1.45-1.32C5.4 15.36 2 12.28 2 8.5 2 5.42 4.42 3 7.5 3c1.74 0 3.41.81 4.5 2.09C13.09 3.81 14.76 3 16.5 3 19.58 3 22 5.42 22 8.5c0 3.78-3.4 6.86-8.55 11.54L12 21.35z"/>
  </g>

  <!-- Padlock / Security -->
  <g transform="translate(130, 185)">
    <rect x="4" y="10" width="18" height="14" rx="3"/>
    <path d="M7 10V6a6 6 0 0 1 12 0v4"/>
    <circle cx="13" cy="16" r="1.5" fill="rgba(255,255,255,0.075)"/>
  </g>

  <!-- Audio Waveform / Speaker -->
  <g transform="translate(230, 185)">
    <polygon points="4,9 9,9 14,4 14,22 9,17 4,17"/>
    <path d="M18 8a6 6 0 0 1 0 10"/>
    <path d="M21 5a10 10 0 0 1 0 16"/>
  </g>

  <!-- Plant / Leaf -->
  <g transform="translate(330, 180)">
    <path d="M5 24c0-10 8-18 18-18 0 10-8 18-18 18z"/>
    <line x1="5" y1="24" x2="17" y2="12"/>
  </g>

  <!-- Smartphone -->
  <g transform="translate(430, 180)">
    <rect x="5" y="2" width="18" height="28" rx="4"/>
    <line x1="12" y1="25" x2="16" y2="25"/>
    <line x1="11" y1="6" x2="17" y2="6"/>
  </g>

  <!-- Scissors -->
  <g transform="translate(525, 185)">
    <circle cx="6" cy="6" r="3.5"/>
    <circle cx="6" cy="18" r="3.5"/>
    <line x1="9" y1="8" x2="22" y2="18"/>
    <line x1="9" y1="16" x2="22" y2="6"/>
  </g>

  <!-- ROW 4 -->
  <!-- Umbrella -->
  <g transform="translate(30, 270)">
    <path d="M3 15a12 12 0 0 1 24 0H3z"/>
    <line x1="15" y1="15" x2="15" y2="24"/>
    <path d="M15 24a2.5 2.5 0 0 1-5 0"/>
  </g>

  <!-- Ice cream / Popsicle -->
  <g transform="translate(130, 265)">
    <path d="M7 14V6a6 6 0 0 1 12 0v8H7z"/>
    <line x1="13" y1="14" x2="13" y2="23"/>
    <line x1="11" y1="6" x2="11" y2="10"/>
  </g>

  <!-- Light Bulb -->
  <g transform="translate(230, 265)">
    <path d="M9 19h6"/>
    <path d="M10 23h4"/>
    <path d="M12 2a7 7 0 0 0-5 11.9c.7.7 1 1.6 1 2.6v1.5h8V16.5c0-1 .3-1.9 1-2.6A7 7 0 0 0 12 2z"/>
  </g>

  <!-- Smiley Emoji -->
  <g transform="translate(330, 265)">
    <circle cx="14" cy="14" r="12"/>
    <circle cx="10" cy="11" r="1" fill="rgba(255,255,255,0.075)"/>
    <circle cx="18" cy="11" r="1" fill="rgba(255,255,255,0.075)"/>
    <path d="M9 16a6 6 0 0 0 10 0"/>
  </g>

  <!-- Compass / Target -->
  <g transform="translate(425, 265)">
    <circle cx="13" cy="13" r="11"/>
    <polygon points="13,5 16,13 13,21 10,13"/>
  </g>

  <!-- Microphone -->
  <g transform="translate(525, 265)">
    <rect x="7" y="3" width="8" height="14" rx="4"/>
    <path d="M3 12a8 8 0 0 0 16 0"/>
    <line x1="11" y1="20" x2="11" y2="25"/>
    <line x1="7" y1="25" x2="15" y2="25"/>
  </g>

  <!-- ROW 5 -->
  <!-- Thumbs Up -->
  <g transform="translate(28, 350)">
    <path d="M7 11v11h-4v-11h4zm3 11h9a3 3 0 0 0 3-2.6l1.2-8A3 3 0 0 0 20.2 8H15V4a3 3 0 0 0-3-3l-4 7v13h2z"/>
  </g>

  <!-- Balloon -->
  <g transform="translate(130, 345)">
    <ellipse cx="13" cy="12" rx="9" ry="11"/>
    <polygon points="11,23 15,23 13,21"/>
    <path d="M13 23c2 3-2 5 0 8"/>
  </g>

  <!-- Dice with dots -->
  <g transform="translate(230, 350)">
    <rect x="3" y="3" width="20" height="20" rx="3"/>
    <circle cx="8" cy="8" r="1.3" fill="rgba(255,255,255,0.075)"/>
    <circle cx="18" cy="8" r="1.3" fill="rgba(255,255,255,0.075)"/>
    <circle cx="13" cy="13" r="1.3" fill="rgba(255,255,255,0.075)"/>
    <circle cx="8" cy="18" r="1.3" fill="rgba(255,255,255,0.075)"/>
    <circle cx="18" cy="18" r="1.3" fill="rgba(255,255,255,0.075)"/>
  </g>

  <!-- Mail / Envelope -->
  <g transform="translate(330, 350)">
    <rect x="2" y="5" width="22" height="16" rx="2"/>
    <polyline points="2,6 13,14 24,6"/>
  </g>

  <!-- Location Pin -->
  <g transform="translate(425, 345)">
    <path d="M12 2a8 8 0 0 0-8 8c0 6 8 14 8 14s8-8 8-14a8 8 0 0 0-8-8z"/>
    <circle cx="12" cy="10" r="3"/>
  </g>

  <!-- Musical Notes -->
  <g transform="translate(525, 345)">
    <circle cx="7" cy="19" r="4"/>
    <circle cx="21" cy="16" r="4"/>
    <path d="M11 19V6l14-3v13"/>
    <line x1="11" y1="10" x2="25" y2="7"/>
  </g>

  <!-- ROW 6 -->
  <!-- Hourglass -->
  <g transform="translate(30, 435)">
    <path d="M5 3h16M5 23h16M7 3l6 9-6 9M19 3l-6 9 6 9"/>
  </g>

  <!-- Soccer Ball / Trophy -->
  <g transform="translate(130, 435)">
    <circle cx="13" cy="13" r="11"/>
    <polygon points="13,8 17,11 15,16 11,16 9,11"/>
    <line x1="13" y1="8" x2="13" y2="2"/>
    <line x1="17" y1="11" x2="23" y2="9"/>
    <line x1="15" y1="16" x2="20" y2="21"/>
    <line x1="11" y1="16" x2="6" y2="21"/>
    <line x1="9" y1="11" x2="3" y2="9"/>
  </g>

  <!-- Shopping Bag / Cart -->
  <g transform="translate(230, 435)">
    <rect x="4" y="8" width="18" height="16" rx="2"/>
    <path d="M8 8V5a5 5 0 0 1 10 0v3"/>
  </g>

  <!-- Cloud with Moon -->
  <g transform="translate(330, 435)">
    <path d="M6 19a5 5 0 0 1-1-9.9A7 7 0 0 1 18 6.5a6 6 0 0 1 5.5 6.5A4.5 4.5 0 0 1 21 19H6z"/>
  </g>

  <!-- Double Chat Bubbles -->
  <g transform="translate(425, 435)">
    <path d="M18 4H6a5 5 0 0 0-5 5v5a5 5 0 0 0 5 5h2v4l5-4h5a5 5 0 0 0 5-5V9a5 5 0 0 0-5-5z"/>
    <path d="M22 8h2a4 4 0 0 1 4 4v4a4 4 0 0 1-4 4h-1v3l-4-3h-2"/>
  </g>

  <!-- Laptop / Screen -->
  <g transform="translate(525, 435)">
    <rect x="4" y="4" width="20" height="14" rx="2"/>
    <path d="M1 21h26"/>
    <line x1="10" y1="18" x2="18" y2="18"/>
  </g>

  <!-- ROW 7 -->
  <!-- Car / Bus (seen in screenshot) -->
  <g transform="translate(30, 520)">
    <rect x="3" y="6" width="22" height="14" rx="3"/>
    <line x1="3" y1="14" x2="25" y2="14"/>
    <circle cx="8" cy="22" r="2.5"/>
    <circle cx="20" cy="22" r="2.5"/>
  </g>

  <!-- Sparkles / Magic -->
  <g transform="translate(130, 520)">
    <path d="M12 2l2.5 6.5L21 11l-6.5 2.5L12 20l-2.5-6.5L3 11l6.5-2.5L12 2z"/>
    <path d="M21 21l-1-2.5-2.5-1 2.5-1 1-2.5 1 2.5 2.5 1-2.5 1-1 2.5z"/>
  </g>

  <!-- Search Glass -->
  <g transform="translate(230, 520)">
    <circle cx="11" cy="11" r="8"/>
    <line x1="17" y1="17" x2="25" y2="25"/>
  </g>

  <!-- Key -->
  <g transform="translate(330, 520)">
    <circle cx="9" cy="9" r="6"/>
    <line x1="14" y1="12" x2="26" y2="24"/>
    <line x1="22" y1="20" x2="24" y2="18"/>
    <line x1="24" y1="22" x2="26" y2="20"/>
  </g>

  <!-- Globe / Earth -->
  <g transform="translate(425, 520)">
    <circle cx="13" cy="13" r="11"/>
    <line x1="2" y1="13" x2="24" y2="13"/>
    <ellipse cx="13" cy="13" rx="5" ry="11"/>
  </g>

  <!-- Shield / Security Check -->
  <g transform="translate(525, 520)">
    <path d="M12 2l9 4v7c0 5.5-4 10.5-9 12-5-1.5-9-6.5-9-12V6l9-4z"/>
    <polyline points="8,13 11,16 16,10"/>
  </g>
</svg>
